<svg id="Layer_1" data-name="Layer 1" xmlns="http://www.w3.org/2000/svg" width="800" height="800" viewBox="0 0 800 800"><defs><style>.cls-1{fill:#010101;}.cls-2{fill:none;}</style></defs><title>uniswap_logo-freelogovectors.net_</title><path class="cls-1" d="M266.66,74.09c-9.94-1.53-10.36-1.71-5.68-2.42,9-1.37,30.14.49,44.73,3.94,34.06,8,65.06,28.67,98.15,65.28l8.79,9.73,12.57-2c53-8.46,106.87-1.74,151.94,19,12.4,5.69,32,17,34.4,19.94.78.92,2.2,6.9,3.17,13.28,3.35,22.05,1.67,39-5.11,51.59-3.7,6.87-3.9,9.05-1.42,14.93,2,4.69,7.51,8.17,13,8.16,11.2,0,23.26-18,28.85-43.05l2.22-9.95,4.39,4.95c24.11,27.15,43.05,64.18,46.3,90.54l.85,6.87-4-6.25c-7-10.75-14-18.07-23-24C660.6,284,643.49,280.35,598.2,278c-40.92-2.15-64.08-5.62-87-13.06-39.06-12.66-58.76-29.52-105.16-90-20.61-26.88-33.35-41.75-46-53.73C331.18,94,302.88,79.68,266.66,74.09Z"/><path class="cls-1" d="M620.78,134.11c1-18,3.49-29.89,8.43-40.74,2-4.3,3.79-7.81,4.07-7.81s-.57,3.17-1.89,7c-3.59,10.53-4.18,24.93-1.71,41.69,3.14,21.26,4.93,24.32,27.54,47.29,10.6,10.77,22.94,24.35,27.41,30.19l8.13,10.6-8.13-7.58c-9.94-9.27-32.81-27.34-37.86-29.92-3.39-1.74-3.89-1.71-6,.36-1.92,1.9-2.33,4.76-2.59,18.29-.42,21.08-3.31,34.61-10.29,48.14-3.77,7.32-4.37,5.76-.95-2.5,2.54-6.17,2.8-8.88,2.79-29.29,0-41-4.94-50.86-33.66-67.75-7.28-4.28-19.27-10.45-26.65-13.71s-13.24-6.11-13-6.32c.81-.8,28.82,7.32,40.1,11.64,16.77,6.41,19.54,7.24,21.57,6.46C619.46,149.68,620.12,145.72,620.78,134.11Z"/><path class="cls-1" d="M286,204.26c-20.19-27.63-32.68-70-30-101.63l.83-9.8,4.6.83c8.62,1.57,23.5,7.07,30.47,11.28,19.12,11.54,27.39,26.73,35.81,65.74,2.47,11.43,5.71,24.36,7.2,28.74,2.39,7.05,11.45,23.51,18.81,34.2,5.31,7.7,1.79,11.35-9.94,10.29C325.88,242.31,301.63,225.67,286,204.26Z"/><path class="cls-1" d="M596.3,409.83C502,372.08,468.74,339.31,468.74,284c0-8.14.28-14.79.62-14.79s4,2.68,8.12,6C496.6,290.44,518,297,577.33,305.56c34.89,5.06,54.53,9.14,72.65,15.11,57.57,19,93.2,57.5,101.69,110,2.47,15.24,1,43.83-3,58.89-3.16,11.9-12.8,33.35-15.36,34.18-.71.23-1.4-2.48-1.59-6.15-1-19.7-11-38.88-27.8-53.24C684.82,448,659.13,435,596.3,409.83Z"/><path class="cls-1" d="M530.07,425.51a166,166,0,0,0-4.55-19.84l-2.41-7.13,4.47,5c6.19,6.9,11.08,15.74,15.22,27.5,3.16,9,3.52,11.65,3.5,26.24,0,14.32-.42,17.32-3.34,25.41a80.26,80.26,0,0,1-19.91,31.47c-17.24,17.44-39.39,27.09-71.36,31.09-5.56.69-21.76,1.87-36,2.6-35.88,1.86-59.5,5.69-80.72,13.1-3.06,1.06-5.78,1.71-6.06,1.44-.86-.85,13.59-9.42,25.53-15.13,16.83-8.06,33.58-12.45,71.12-18.67,18.54-3.07,37.69-6.79,42.55-8.27C514,506.32,537.63,470.21,530.07,425.51Z"/><path class="cls-1" d="M573.32,501.84c-12.54-26.78-15.41-52.63-8.55-76.74.74-2.58,1.92-4.69,2.63-4.69s3.67,1.59,6.57,3.53c5.78,3.87,17.36,10.37,48.22,27.1,38.51,20.87,60.47,37,75.4,55.49,13.08,16.16,21.17,34.58,25.07,57,2.2,12.71.9,43.32-2.38,56.12-10.35,40.39-34.42,72.11-68.74,90.62-5,2.72-9.54,4.94-10,5s1.35-4.62,4.07-10.29c11.55-24,12.86-47.32,4.13-73.29-5.34-15.91-16.24-35.31-38.24-68.11C585.88,525.44,579.61,515.29,573.32,501.84Z"/><path class="cls-1" d="M219,646.33c35-29.37,78.57-50.24,118.24-56.65,17.1-2.76,45.59-1.67,61.42,2.36,25.38,6.46,48.09,20.92,59.9,38.14C470.08,647,475,661.69,480.18,694.34c2,12.88,4.25,25.81,4.92,28.74,3.87,16.92,11.4,30.44,20.73,37.23,14.83,10.79,40.36,11.46,65.47,1.72,4.27-1.65,8-2.8,8.23-2.54.91.9-11.74,9.31-20.66,13.75-12,6-21.55,8.26-34.23,8.26-23,0-42.1-11.63-58-35.34-3.13-4.67-10.18-18.65-15.66-31.07-16.82-38.14-25.13-49.75-44.67-62.47-17-11.06-38.92-13-55.41-5-21.67,10.56-27.71,38.08-12.2,55.52,6.17,6.93,17.67,12.9,27.08,14.07a28.84,28.84,0,0,0,32.71-28.78c0-11.47-4.43-18-15.59-23-15.25-6.84-31.63,1.15-31.55,15.38,0,6.07,2.69,9.88,8.81,12.63,3.93,1.77,4,1.91.82,1.25-14-2.88-17.26-19.64-6-30.77,13.5-13.35,41.42-7.46,51,10.77,4,7.66,4.5,22.91,1,32.12-7.86,20.61-30.77,31.44-54,25.55-15.82-4-22.27-8.37-41.35-27.9-33.15-34-46-40.53-93.82-47.94l-9.16-1.42Z"/><path class="cls-1" d="M63.42,38.8c110.72,133.57,187,188.67,195.45,200.31,7,9.62,4.37,18.26-7.62,25-6.67,3.77-20.37,7.59-27.23,7.59-7.76,0-10.43-3-10.43-3-4.5-4.24-7-3.5-30.14-44.27C151.37,175,124.52,134,123.78,133.27c-1.69-1.59-1.66-1.53,56.4,101.71,9.38,21.52,1.86,29.42,1.86,32.48,0,6.24-1.71,9.52-9.45,18.09-12.9,14.31-18.66,30.38-22.83,63.64-4.66,37.29-17.79,63.63-54.15,108.7-21.29,26.39-24.77,31.23-30.14,41.86-6.77,13.4-8.63,20.9-9.38,37.81-.8,17.88.75,29.43,6.25,46.53,4.81,15,9.83,24.85,22.67,44.61,11.08,17.06,17.46,29.74,17.46,34.7,0,4,.76,4,17.93.1,41.1-9.22,74.47-25.45,93.23-45.33,11.62-12.3,14.34-19.1,14.43-35.95.06-11-.33-13.34-3.33-19.69-4.88-10.33-13.77-18.91-33.36-32.22-25.67-17.44-36.64-31.49-39.67-50.8-2.48-15.84.4-27,14.6-56.6,14.7-30.62,18.34-43.67,20.81-74.53,1.59-19.94,3.79-27.81,9.56-34.12,6-6.58,11.42-8.81,26.3-10.83,24.26-3.29,39.7-9.53,52.4-21.16,11-10.09,15.62-19.81,16.32-34.44l.54-11.09-6.15-7.13C263.79,203.78,48.49,18.5,47.12,18.5,46.83,18.5,54.16,27.64,63.42,38.8Zm51.57,519A19.54,19.54,0,0,0,108.92,532c-8-5.26-20.34-2.78-20.34,4.07,0,2.1,1.17,3.62,3.79,5,4.42,2.26,4.74,4.8,1.26,10s-3.23,9.88.81,13C101,569.07,110.16,566.28,115,557.79Z"/><path class="cls-1" d="M307.54,309.25c-11.39,3.47-22.46,15.47-25.88,28-2.09,7.68-.91,21.14,2.22,25.29,5.06,6.72,9.95,8.49,23.2,8.39,25.93-.18,48.47-11.23,51.09-25.05,2.15-11.33-7.75-27-21.39-33.92C329.75,308.45,314.78,307,307.54,309.25Zm30.31,23.56c4-5.65,2.25-11.75-4.55-15.88-12.95-7.86-32.54-1.36-32.54,10.8,0,6.06,10.22,12.66,19.58,12.66C326.57,340.39,335.1,336.7,337.85,332.81Z"/><rect class="cls-2" width="800" height="800"/></svg>